<?xml version="1.0" encoding="UTF-8"?>
<svg version="1.1" xmlns="http://www.w3.org/2000/svg" width="192" height="192">
<path d="M0 0 C8.80372754 3.68396324 12.62240035 15.78154091 16 24 C18.1464184 30.62248603 18.16665873 38.56459902 15.94140625 45.1171875 C12.72908473 51.40254289 8.7171843 55.91334841 3 60 C1.95972656 60.76570313 1.95972656 60.76570313 0.8984375 61.546875 C-6.42412374 66.42858249 -14.66606722 68.81716369 -23.00439453 71.37890625 C-24.58354903 71.87038766 -26.1515598 72.39766094 -27.71484375 72.9375 C-33.14126311 74.76855891 -38.67316064 75.71139493 -44.3125 76.625 C-45.07103271 76.74834717 -45.82956543 76.87169434 -46.61108398 76.9987793 C-59.69845249 78.99342622 -72.7479642 79.15923289 -85.95556641 79.13037109 C-88.86235805 79.12502326 -91.76899435 79.13033884 -94.67578125 79.13671875 C-108.72245718 79.14330626 -122.67273604 79.01436178 -136.5 76.25 C-137.82874146 75.9866687 -137.82874146 75.9866687 -139.18432617 75.71801758 C-163.81904899 70.63261315 -163.81904899 70.63261315 -170 62 C-172.1418725 57.38925157 -172.32194368 54.1362718 -170.9375 49.25 C-167.81356048 44.00984339 -164.78499693 40.94827075 -159 39 C-151.43606199 37.80037711 -144.36075277 39.50438617 -137.0625 41.3125 C-104.25249264 49.35203823 -63.17883527 51.38498127 -31 39 C-29.96101562 38.62875 -28.92203125 38.2575 -27.8515625 37.875 C-21.34549454 35.49291562 -15.77206168 32.81173884 -10 29 C-9.34 29 -8.68 29 -8 29 C-8 28.34 -8 27.68 -8 27 C-6.33333333 25.33333333 -4.66666667 23.66666667 -3 22 C0.52118286 17.4988653 0.36600836 13.64802489 0.1875 8.1875 C0.17396484 7.39923828 0.16042969 6.61097656 0.14648438 5.79882812 C0.11133456 3.86558831 0.05753361 1.93270318 0 0 Z " fill="#133BCE" transform="translate(173,45)"/>
<path d="M0 0 C4.95998472 0.61632946 8.93671966 2.79835629 13.3125 5.0625 C14.05306641 5.43955078 14.79363281 5.81660156 15.55664062 6.20507812 C17.37387522 7.13128157 19.18732404 8.06490629 21 9 C21 9.66 21 10.32 21 11 C21.57234375 11.10441406 22.1446875 11.20882813 22.734375 11.31640625 C25.36985768 12.11159499 27.06031308 13.27901491 29.25 14.9375 C29.95640625 15.46214844 30.6628125 15.98679687 31.390625 16.52734375 C32.18726563 17.25630859 32.18726563 17.25630859 33 18 C33 18.66 33 19.32 33 20 C33.99 20.33 34.98 20.66 36 21 C37.5703125 22.92578125 37.5703125 22.92578125 39.125 25.3125 C39.64320313 26.09238281 40.16140625 26.87226562 40.6953125 27.67578125 C43.23972463 32.20849148 43.53850425 36.86497731 43 42 C39.91035594 51.11444999 34.41031896 56.08097909 26.18359375 60.51953125 C22.9697944 62.01404653 19.83756387 63.07098196 16.4375 64.0625 C12.05652029 65.32732422 12.05652029 65.32732422 7.80834961 66.96044922 C-5.03819438 71.71578125 -19.61782696 71.53548308 -33.125 71.4375 C-34.02041504 71.43445862 -34.91583008 71.43141724 -35.83837891 71.42828369 C-50.24596246 71.35616885 -63.93243669 70.25926095 -78 67 C-80.192634 66.52439678 -82.38534558 66.04915107 -84.578125 65.57421875 C-106.07398298 60.78554526 -106.07398298 60.78554526 -115 56 C-116.22783203 55.42958984 -116.22783203 55.42958984 -117.48046875 54.84765625 C-119.99645387 53.42294179 -121.38011378 52.40252787 -123 50 C-124.15405653 45.10114778 -124.13412786 40.90125609 -123 36 C-119.6639234 30.73892881 -114.10281722 27.96646031 -108.19921875 26.3828125 C-100.85564291 25.10453465 -96.21044962 27.79792573 -89.82177734 31.12719727 C-75.40694513 38.50751618 -61.0888675 41.25666419 -45 42 C-43.14955078 42.08894531 -43.14955078 42.08894531 -41.26171875 42.1796875 C-37.82185366 42.2524461 -34.43661512 42.16961834 -31 42 C-30.25427734 41.96422852 -29.50855469 41.92845703 -28.74023438 41.89160156 C-19.36732866 41.37837691 -10.5215888 40.28427089 -1.625 37.1875 C-0.94203857 36.95144043 -0.25907715 36.71538086 0.44458008 36.47216797 C5.16271119 34.68112932 8.25627614 32.25229108 12 29 C12.66 29 13.32 29 14 29 C15.44776002 24.40674697 16.26897191 21.05795616 15.0625 16.3125 C11.85335798 11.15842342 7.65693363 7.99953905 2.5625 4.8125 C1.2940625 3.9153125 1.2940625 3.9153125 0 3 C0 2.01 0 1.02 0 0 Z " fill="#133BCE" transform="translate(123,10)"/>
<path d="M0 0 C0.66 0 1.32 0 2 0 C2.15018699 4.21332265 2.25805653 8.42516114 2.32958984 12.64038086 C2.35945734 14.06904286 2.40016908 15.49752649 2.45263672 16.92553711 C2.89015773 29.15467835 0.41685149 37.50807187 -8.0625 46.6875 C-17.55373907 55.56763907 -28.49363294 60.42948153 -40.75 64.3125 C-41.73462219 64.63142212 -41.73462219 64.63142212 -42.73913574 64.95678711 C-52.76233654 68.20146736 -62.52768754 70.76733272 -73 72 C-74.34544444 72.19919052 -75.69049018 72.40108977 -77.03515625 72.60546875 C-86.4572892 73.94417411 -95.86535629 74.23069796 -105.375 74.3125 C-106.53942627 74.33014404 -107.70385254 74.34778809 -108.90356445 74.3659668 C-118.63958126 74.35834917 -129.3650138 73.65614181 -137 67 C-139.96636412 63.44036306 -140.48428792 60.42254895 -140.28125 55.921875 C-139.64290385 51.55984297 -137.6128666 49.48750753 -134.25 46.8125 C-128.54581326 43.63131893 -123.17009084 42.75217408 -116.6953125 42.62109375 C-116.01873093 42.60459778 -115.34214935 42.58810181 -114.64506531 42.57110596 C-113.21045381 42.53686511 -111.77574478 42.50651522 -110.3409729 42.47982788 C-107.34801346 42.42265858 -104.35585016 42.3414313 -101.36341858 42.26179504 C-99.18715246 42.20425196 -97.01083446 42.14949413 -94.83447266 42.09570312 C-71.74118476 41.51932665 -47.56853734 38.73659527 -26.79077148 27.90380859 C-25 27 -25 27 -22.30859375 25.9765625 C-11.76526772 21.51661071 -4.90484071 11.89295001 -0.6640625 1.6875 C-0.44492188 1.130625 -0.22578125 0.57375 0 0 Z " fill="#133BCE" transform="translate(190,93)"/>
<path d="M0 0 C5.66482884 -0.55416804 9.01565412 1.16512509 13.75 3.9375 C14.45012207 4.3406543 15.15024414 4.74380859 15.87158203 5.15917969 C23.18102557 9.49805729 31.39587464 14.49590311 34 23 C34.13080765 26.59721044 33.96009301 28.90457473 31.53125 31.67578125 C18.88759125 42.11716337 -1.10479756 40.94958729 -16.5390625 39.65625 C-29.05273893 38.45221699 -41.07473499 36.15614782 -53 32.125 C-54.05973022 31.77646973 -54.05973022 31.77646973 -55.14086914 31.42089844 C-59.97752715 29.70617249 -63.28872451 27.56418226 -67 24 C-68.19686382 21.00784044 -68.13465057 19.55206736 -67.375 16.4375 C-65.13383432 12.46452447 -62.28727678 10.42909226 -58 9 C-51.5024092 8.47112633 -47.73830726 9.65776629 -42.125 12.8125 C-27.66216453 20.43273937 -11.16557862 24.50971077 5 20 C7.72028579 18.91089106 8.87957982 18.12042018 11 16 C11.91691437 13.54459933 11.91691437 13.54459933 11 11 C8.49082027 7.97422444 5.96868235 5.97931853 2.6875 3.8125 C1.800625 3.214375 0.91375 2.61625 0 2 C0 1.34 0 0.68 0 0 Z " fill="#133BCC" transform="translate(88,0)"/>
<path d="M0 0 C0.57234375 0.22300781 1.1446875 0.44601563 1.734375 0.67578125 C-8.35237273 20.77016497 -21.11283367 33.06502402 -42.4831543 40.22827148 C-51.59208492 43.1154657 -60.68141823 45.35790734 -70.265625 43.67578125 C-72.16796875 42.31640625 -72.16796875 42.31640625 -73.265625 40.67578125 C-73.265625 36.48511785 -72.06579958 33.2948459 -69.20703125 30.18359375 C-61.58742009 24.26574685 -51.69040356 22.1371951 -42.4597168 20.1418457 C-33.15045645 18.08360737 -24.82683605 14.11801907 -16.421875 9.69140625 C-14.36976111 8.72483087 -12.47986554 8.13875882 -10.265625 7.67578125 C-10.265625 7.01578125 -10.265625 6.35578125 -10.265625 5.67578125 C-8.65625 4.1328125 -8.65625 4.1328125 -6.515625 2.48828125 C-5.47148437 1.66263672 -5.47148437 1.66263672 -4.40625 0.8203125 C-2.265625 -0.32421875 -2.265625 -0.32421875 0 0 Z " fill="#133ACA" transform="translate(178.265625,148.32421875)"/>
<path d="M0 0 C0.66 0 1.32 0 2 0 C2.15018699 4.21332265 2.25805653 8.42516114 2.32958984 12.64038086 C2.35945734 14.06904286 2.40016908 15.49752649 2.45263672 16.92553711 C2.89015773 29.15467835 0.41685149 37.50807187 -8.0625 46.6875 C-17.55373907 55.56763907 -28.49363294 60.42948153 -40.75 64.3125 C-41.73462219 64.63142212 -41.73462219 64.63142212 -42.73913574 64.95678711 C-52.76233654 68.20146736 -62.52768754 70.76733272 -73 72 C-74.34544444 72.19919052 -75.69049018 72.40108977 -77.03515625 72.60546875 C-86.4572892 73.94417411 -95.86535629 74.23069796 -105.375 74.3125 C-106.53942627 74.33014404 -107.70385254 74.34778809 -108.90356445 74.3659668 C-118.63958126 74.35834917 -129.3650138 73.65614181 -137 67 C-139.96636412 63.44036306 -140.48428792 60.42254895 -140.28125 55.921875 C-139.64290385 51.55984297 -137.6128666 49.48750753 -134.25 46.8125 C-128.54581326 43.63131893 -123.17009084 42.75217408 -116.6953125 42.62109375 C-116.01873093 42.60459778 -115.34214935 42.58810181 -114.64506531 42.57110596 C-113.21045381 42.53686511 -111.77574478 42.50651522 -110.3409729 42.47982788 C-107.34801346 42.42265858 -104.35585016 42.3414313 -101.36341858 42.26179504 C-99.18715246 42.20425196 -97.01083446 42.14949413 -94.83447266 42.09570312 C-71.74118476 41.51932665 -47.56853734 38.73659527 -26.79077148 27.90380859 C-25 27 -25 27 -22.30859375 25.9765625 C-11.76526772 21.51661071 -4.90484071 11.89295001 -0.6640625 1.6875 C-0.44492188 1.130625 -0.22578125 0.57375 0 0 Z M0 6 C-0.90556534 7.31276586 -1.77321397 8.65171837 -2.625 10 C-6.14780064 15.36888367 -9.96346075 20.80038676 -15.2109375 24.6015625 C-15.80132812 25.06304687 -16.39171875 25.52453125 -17 26 C-17 26.66 -17 27.32 -17 28 C-17.78375 27.896875 -18.5675 27.79375 -19.375 27.6875 C-23.79511747 28.06854461 -26.58636824 29.68577726 -30.453125 31.75390625 C-33.91543077 33.44788714 -37.23330979 34.23271125 -41 35 C-41 35.66 -41 36.32 -41 37 C-41.66427002 37.04318359 -42.32854004 37.08636719 -43.01293945 37.13085938 C-49.93617628 37.65954512 -56.44532755 38.88597699 -63.1875 40.5 C-72.51215609 42.60396409 -81.43110028 43.81490814 -91 44 C-95.75523049 44.0979018 -100.50996678 44.20543825 -105.26467896 44.32580566 C-107.3911987 44.3739517 -109.51742647 44.40408169 -111.64428711 44.43261719 C-124.28044762 44.65462166 -124.28044762 44.65462166 -135 50.625 C-135.66 51.40875 -136.32 52.1925 -137 53 C-137.495 53.495 -137.495 53.495 -138 54 C-138.40264914 59.13377655 -138.17526912 62.83245928 -135 67 C-132.23566348 67.82875572 -129.92533614 67.90408734 -127 68 C-127 68.66 -127 69.32 -127 70 C-119.81572754 72.231748 -112.9892982 72.34552778 -105.5 72.3125 C-104.24912598 72.30976074 -102.99825195 72.30702148 -101.70947266 72.30419922 C-93.75690581 72.21445044 -86.49054682 71.56998607 -78.734375 69.7890625 C-74.37377167 68.86767979 -70.05650644 68.42057436 -65.625 68 C-59.14216406 67.36383386 -53.13217846 66.31112254 -47 64 C-47 63.34 -47 62.68 -47 62 C-45.80375 61.938125 -44.6075 61.87625 -43.375 61.8125 C-34.52366028 60.82901781 -25.75892189 57.8382714 -19 52 C-18.27039063 51.47019531 -17.54078125 50.94039062 -16.7890625 50.39453125 C-11.1194857 46.24980453 -7.02114297 41.73668495 -3 36 C-2.071875 34.7934375 -2.071875 34.7934375 -1.125 33.5625 C2.49517 25.31655722 1.1058905 14.82420862 1 6 C0.67 6 0.34 6 0 6 Z " fill="#061459" transform="translate(190,93)"/>
<path d="M0 0 C5.24582756 7.86874134 6.24490645 15.67863433 5 25 C2.32408943 32.78268496 -2.38111061 38.2688083 -9 43 C-10.04027344 43.76570313 -10.04027344 43.76570313 -11.1015625 44.546875 C-18.42412374 49.42858249 -26.66606722 51.81716369 -35.00439453 54.37890625 C-36.58354903 54.87038766 -38.1515598 55.39766094 -39.71484375 55.9375 C-45.14126311 57.76855891 -50.67316064 58.71139493 -56.3125 59.625 C-57.07103271 59.74834717 -57.82956543 59.87169434 -58.61108398 59.9987793 C-71.69845249 61.99342622 -84.7479642 62.15923289 -97.95556641 62.13037109 C-100.86235805 62.12502326 -103.76899435 62.13033884 -106.67578125 62.13671875 C-120.72245718 62.14330626 -134.67273604 62.01436178 -148.5 59.25 C-149.82874146 58.9866687 -149.82874146 58.9866687 -151.18432617 58.71801758 C-175.81904899 53.63261315 -175.81904899 53.63261315 -182 45 C-184.1418725 40.38925157 -184.32194368 37.1362718 -182.9375 32.25 C-179.81356048 27.00984339 -176.78499693 23.94827075 -171 22 C-163.43490222 20.80019317 -156.3619656 22.50652796 -149.0625 24.3125 C-124.31004844 30.30715109 -99.29895169 30.45263745 -74 30 C-74 30.33 -74 30.66 -74 31 C-78.68049376 31.91983943 -83.21503938 32.1463166 -87.96875 32.1328125 C-88.7261145 32.13376923 -89.483479 32.13472595 -90.26379395 32.13571167 C-91.86401452 32.13638969 -93.4642379 32.13456183 -95.06445312 32.13037109 C-97.46490992 32.12507738 -99.86517443 32.13029779 -102.265625 32.13671875 C-116.33404728 32.14581975 -129.86409217 31.3112683 -143.6875 28.5 C-145.41516602 28.16162109 -145.41516602 28.16162109 -147.17773438 27.81640625 C-155.48623512 26.17125496 -155.48623512 26.17125496 -159 25 C-168.51870661 24.25899761 -168.51870661 24.25899761 -177 28 C-180.26114447 31.69596373 -180.40402829 35.11230536 -180.22265625 39.84375 C-179.93897192 42.59100875 -179.47142351 44.64572239 -178 47 C-176.19747131 47.70194993 -176.19747131 47.70194993 -174 48 C-173.12085938 48.45117188 -172.24171875 48.90234375 -171.3359375 49.3671875 C-151.08424089 59.27961043 -127.38708565 59.49956592 -105.38232422 59.39111328 C-101.50582703 59.37502418 -97.63037212 59.39105071 -93.75390625 59.41015625 C-80.95504219 59.41934614 -68.6231382 58.96070224 -56.02148438 56.64306641 C-52.2900118 55.97157515 -48.78657754 55.88205947 -45 56 C-45 55.34 -45 54.68 -45 54 C-44.34515625 53.80889648 -43.6903125 53.61779297 -43.015625 53.42089844 C-40.00806961 52.53838483 -37.00407462 51.6442871 -34 50.75 C-32.45505859 50.29947266 -32.45505859 50.29947266 -30.87890625 49.83984375 C-24.88011437 48.04402707 -19.54307964 45.89985185 -14 43 C-13.34 43 -12.68 43 -12 43 C-12 42.34 -12 41.68 -12 41 C-10.3203125 39.37890625 -10.3203125 39.37890625 -8.125 37.5625 C-3.92191828 34.07499671 -1.88659503 31.46733604 -1 26 C-0.01 26 0.98 26 2 26 C1.85771699 23.16644901 1.71126584 20.33321213 1.5625 17.5 C1.52318359 16.70851563 1.48386719 15.91703125 1.44335938 15.1015625 C1.17294782 10.02614559 0.6872858 5.03624555 0 0 Z " fill="#08185E" transform="translate(185,62)"/>
<path d="M0 0 C0.57234375 0.22300781 1.1446875 0.44601563 1.734375 0.67578125 C-8.35237273 20.77016497 -21.11283367 33.06502402 -42.4831543 40.22827148 C-51.59208492 43.1154657 -60.68141823 45.35790734 -70.265625 43.67578125 C-72.16796875 42.31640625 -72.16796875 42.31640625 -73.265625 40.67578125 C-73.265625 36.48511785 -72.06579958 33.2948459 -69.20703125 30.18359375 C-61.58742009 24.26574685 -51.69040356 22.1371951 -42.4597168 20.1418457 C-33.15045645 18.08360737 -24.82683605 14.11801907 -16.421875 9.69140625 C-14.36976111 8.72483087 -12.47986554 8.13875882 -10.265625 7.67578125 C-10.265625 7.01578125 -10.265625 6.35578125 -10.265625 5.67578125 C-8.65625 4.1328125 -8.65625 4.1328125 -6.515625 2.48828125 C-5.47148437 1.66263672 -5.47148437 1.66263672 -4.40625 0.8203125 C-2.265625 -0.32421875 -2.265625 -0.32421875 0 0 Z M-7.265625 5.67578125 C-7.265625 6.33578125 -7.265625 6.99578125 -7.265625 7.67578125 C-10.41786787 9.27798507 -13.61062205 10.77180031 -16.828125 12.23828125 C-17.77816406 12.67269531 -18.72820312 13.10710937 -19.70703125 13.5546875 C-22.265625 14.67578125 -22.265625 14.67578125 -25.265625 15.67578125 C-25.265625 16.33578125 -25.265625 16.99578125 -25.265625 17.67578125 C-26.46316406 17.90652344 -27.66070312 18.13726562 -28.89453125 18.375 C-42.2410293 21.01923447 -55.24681799 24.05317331 -67.265625 30.67578125 C-67.265625 31.33578125 -67.265625 31.99578125 -67.265625 32.67578125 C-68.255625 33.00578125 -69.245625 33.33578125 -70.265625 33.67578125 C-70.28625 34.97515625 -70.306875 36.27453125 -70.328125 37.61328125 C-70.33972656 38.34417969 -70.35132812 39.07507813 -70.36328125 39.828125 C-70.47123684 41.69310266 -70.47123684 41.69310266 -69.265625 42.67578125 C-60.61251218 43.68310927 -53.3672403 41.45347792 -45.265625 38.67578125 C-43.476365 38.14673924 -41.68487449 37.62514605 -39.890625 37.11328125 C-31.81435167 34.74208295 -31.81435167 34.74208295 -25.265625 29.67578125 C-24.275625 29.34578125 -23.285625 29.01578125 -22.265625 28.67578125 C-20.49691015 27.0544593 -18.88553887 25.43749129 -17.265625 23.67578125 C-16.64558594 23.00289062 -16.02554688 22.33 -15.38671875 21.63671875 C-11.71403155 18.14682382 -11.71403155 18.14682382 -10.265625 13.67578125 C-9.605625 13.67578125 -8.945625 13.67578125 -8.265625 13.67578125 C-6.9050241 12.18941367 -6.9050241 12.18941367 -5.640625 10.30078125 C-4.97160156 9.36105469 -4.97160156 9.36105469 -4.2890625 8.40234375 C-3.09565531 6.72355482 -3.09565531 6.72355482 -3.265625 4.67578125 C-5.3401606 4.52671005 -5.3401606 4.52671005 -7.265625 5.67578125 Z " fill="#071453" transform="translate(178.265625,148.32421875)"/>
<path d="M0 0 C4.95998472 0.61632946 8.93671966 2.79835629 13.3125 5.0625 C14.05306641 5.43955078 14.79363281 5.81660156 15.55664062 6.20507812 C17.37387522 7.13128157 19.18732404 8.06490629 21 9 C21 9.66 21 10.32 21 11 C21.57234375 11.10441406 22.1446875 11.20882813 22.734375 11.31640625 C25.36985768 12.11159499 27.06031308 13.27901491 29.25 14.9375 C29.95640625 15.46214844 30.6628125 15.98679687 31.390625 16.52734375 C31.92171875 17.01332031 32.4528125 17.49929687 33 18 C33 18.66 33 19.32 33 20 C33.99 20.33 34.98 20.66 36 21 C37.5703125 22.92578125 37.5703125 22.92578125 39.125 25.3125 C39.64320313 26.09238281 40.16140625 26.87226562 40.6953125 27.67578125 C43.23972463 32.20849148 43.53850425 36.86497731 43 42 C39.85525749 51.27699039 34.26307265 55.91080519 26.125 60.6875 C22.16902147 62.34901098 18.20475954 63.20576764 14 64 C16.58005983 61.00641141 19.54324813 59.54433112 23.0625 57.8125 C24.12597656 57.28269531 25.18945312 56.75289062 26.28515625 56.20703125 C29 55 29 55 31 55 C31 54.34 31 53.68 31 53 C31.928125 52.401875 32.85625 51.80375 33.8125 51.1875 C37.19839445 48.86384695 38.51683646 47.79030683 40 44 C40.7652745 37.84591759 40.48312081 31.32179425 37 26 C34.08333333 24.33333333 34.08333333 24.33333333 31 23 C30.38125 22.01 29.7625 21.02 29.125 20 C26.22231914 15.90209761 23.74069798 15.4222094 19 14 C19.05220703 14.99580078 19.05220703 14.99580078 19.10546875 16.01171875 C19.38394794 25.09544469 19.38394794 25.09544469 16 29 C15.34 29 14.68 29 14 29 C14.26876953 28.14728516 14.26876953 28.14728516 14.54296875 27.27734375 C15.68830972 23.11940896 16.14444092 20.56813428 15.0625 16.3125 C11.85335798 11.15842342 7.65693363 7.99953905 2.5625 4.8125 C1.716875 4.214375 0.87125 3.61625 0 3 C0 2.01 0 1.02 0 0 Z " fill="#061250" transform="translate(123,10)"/>
<path d="M0 0 C24.75245156 5.99465109 49.76354831 6.14013745 75.0625 5.6875 C75.0625 6.0175 75.0625 6.3475 75.0625 6.6875 C70.38200624 7.60733943 65.84746062 7.8338166 61.09375 7.8203125 C60.3363855 7.82126923 59.579021 7.82222595 58.79870605 7.82321167 C57.19848548 7.82388969 55.5982621 7.82206183 53.99804688 7.81787109 C51.59759008 7.81257738 49.19732557 7.81779779 46.796875 7.82421875 C32.72845272 7.83331975 19.19840783 6.9987683 5.375 4.1875 C3.64733398 3.84912109 3.64733398 3.84912109 1.88476562 3.50390625 C-6.42373512 1.85875496 -6.42373512 1.85875496 -9.9375 0.6875 C-19.45620661 -0.05350239 -19.45620661 -0.05350239 -27.9375 3.6875 C-31.05309413 7.21850668 -31.55667536 10.68937727 -31.44140625 15.26171875 C-30.50947047 19.74801423 -27.7429584 23.15562826 -24.9375 26.6875 C-28.99823989 24.72509223 -31.99399057 23.06238227 -33.73828125 18.671875 C-34.88579721 14.53236957 -35.06627838 12.14201193 -33.875 7.9375 C-25.79500719 -5.61603633 -13.41911647 -3.3200443 0 0 Z " fill="#07134F" transform="translate(35.9375,86.3125)"/>
<path d="M0 0 C5.66482884 -0.55416804 9.01565412 1.16512509 13.75 3.9375 C14.45012207 4.3406543 15.15024414 4.74380859 15.87158203 5.15917969 C23.13002572 9.46778384 31.50020324 14.50606691 34 23 C33.75 26.75 33.75 26.75 33 30 C32.01 30.495 32.01 30.495 31 31 C30.99613281 30.05640625 30.99613281 30.05640625 30.9921875 29.09375 C30.68064102 22.19818782 29.10550427 17.75523059 24 13 C21.11718861 11.0544823 18.12446133 9.5162827 15 8 C13.32733959 7.01005812 11.65715896 6.01567807 10 5 C10.66 5.70125 11.32 6.4025 12 7.125 C14 10 14 10 14.5625 13 C13.65367706 17.84705569 10.5813376 19.89294703 6.68334961 22.62182617 C3.61496186 24.19775637 1.68395705 24.37368301 -1.74609375 24.36328125 C-2.83083984 24.36263672 -3.91558594 24.36199219 -5.03320312 24.36132812 C-6.71833008 24.3371582 -6.71833008 24.3371582 -8.4375 24.3125 C-10.11682617 24.31733398 -10.11682617 24.31733398 -11.83007812 24.32226562 C-17.2395993 24.28695124 -21.96439417 24.2291659 -27 22 C-27 21.34 -27 20.68 -27 20 C-25.77925781 20.16757812 -24.55851562 20.33515625 -23.30078125 20.5078125 C-6.82605395 22.79891092 -6.82605395 22.79891092 8.8125 18.1875 C11.15850526 16.19776803 11.15850526 16.19776803 11.6875 13.5625 C10.39284494 8.73696751 6.70694622 6.46685128 2.6875 3.8125 C1.800625 3.214375 0.91375 2.61625 0 2 C0 1.34 0 0.68 0 0 Z " fill="#081556" transform="translate(88,0)"/>
<path d="M0 0 C4.09441654 0.84324368 7.4110804 2.69396434 11.07421875 4.6484375 C26.92222188 11.96941091 43.8733183 12.28833826 61 12.3125 C61.80514038 12.31599457 62.61028076 12.31948914 63.43981934 12.3230896 C78.53644508 13.13930265 78.53644508 13.13930265 92.1015625 8.36450195 C92.72804688 7.91421631 93.35453125 7.46393066 94 7 C94.99 7.33 95.98 7.66 97 8 C82.57878 19.30311838 59.73652803 16.95549033 42.57446289 14.91381836 C32.39455581 13.59868975 22.66531383 11.39362872 12.9375 8.125 C11.86520142 7.77646973 11.86520142 7.77646973 10.77124023 7.42089844 C6.03951403 5.75134005 3.29653178 3.79133285 0 0 Z " fill="#08175B" transform="translate(22,24)"/>
<path d="M0 0 C3.75117548 0.60611453 6.79106712 1.67935272 10.1875 3.375 C11.04730469 3.79523437 11.90710938 4.21546875 12.79296875 4.6484375 C15 6 15 6 17 9 C17.99 9.33 18.98 9.66 20 10 C21.38576923 11.62332967 22.72641268 13.28724465 24 15 C21.525 14.505 21.525 14.505 19 14 C19.05220703 14.99580078 19.05220703 14.99580078 19.10546875 16.01171875 C19.38394794 25.09544469 19.38394794 25.09544469 16 29 C15.34 29 14.68 29 14 29 C14.26876953 28.14728516 14.26876953 28.14728516 14.54296875 27.27734375 C15.68830972 23.11940896 16.14444092 20.56813428 15.0625 16.3125 C11.85335798 11.15842342 7.65693363 7.99953905 2.5625 4.8125 C1.716875 4.214375 0.87125 3.61625 0 3 C0 2.01 0 1.02 0 0 Z " fill="#1537B2" transform="translate(123,10)"/>
<path d="M0 0 C-13.9409266 7.2286286 -29.82591076 7.48246816 -45.21582031 7.33618164 C-47.89418185 7.31232917 -50.57155702 7.31568648 -53.25 7.32226562 C-62.34495704 7.30622125 -71.07652642 6.98488775 -80 5 C-80 4.67 -80 4.34 -80 4 C-79.36123428 4.00666183 -78.72246857 4.01332367 -78.06434631 4.02018738 C-71.33046578 4.0872913 -64.59668234 4.13210707 -57.86254883 4.16479492 C-55.3595798 4.17975002 -52.85663637 4.20012144 -50.35375977 4.22631836 C-35.40295169 4.37872516 -21.27310243 4.21277786 -6.73461914 0.40698242 C-4.46757967 -0.12491832 -2.31886685 -0.06441297 0 0 Z " fill="#0A195F" transform="translate(137,74)"/>
<path d="M0 0 C-1 2 -1 2 -4.65625 3.40234375 C-21.63785177 8.92542541 -37.13952345 11.56401505 -55 11 C-55 10.67 -55 10.34 -55 10 C-45.73441045 8.10648715 -36.54284315 6.58094688 -27.11767578 5.73486328 C-22.80166106 5.31958 -19.08449566 4.41026283 -15 3 C-13.68 3 -12.36 3 -11 3 C-11 2.34 -11 1.68 -11 1 C-9.5437328 0.63743142 -8.08488815 0.28520207 -6.625 -0.0625 C-5.81289062 -0.25972656 -5.00078125 -0.45695313 -4.1640625 -0.66015625 C-2 -1 -2 -1 0 0 Z " fill="#0E2377" transform="translate(154,154)"/>
<path d="M0 0 C-13.98252322 6.35569237 -26.43227391 8.23236496 -41.6875 8.25 C-42.71171555 8.25200912 -42.71171555 8.25200912 -43.75662231 8.25405884 C-58.53083192 8.24779483 -73.18234533 7.61194848 -87 2 C-87 1.34 -87 0.68 -87 0 C-86.28457031 0.19335938 -85.56914063 0.38671875 -84.83203125 0.5859375 C-60.79448539 6.86741779 -29.8324109 10.80987614 -6.53125 -0.07421875 C-3.79467489 -1.07509576 -2.67230566 -1.03993027 0 0 Z " fill="#051353" transform="translate(129,46)"/>
<path d="M0 0 C-4.95996135 0.34950252 -7.94187265 -0.6242788 -12.3125 -2.9375 C-13.36050781 -3.48277344 -14.40851562 -4.02804688 -15.48828125 -4.58984375 C-18 -6 -18 -6 -19 -7 C-25.48749479 -7.84922142 -29.74688733 -6.85942971 -35 -3 C-36.32793606 -0.93299345 -36.32793606 -0.93299345 -37 1 C-37.99 1.495 -37.99 1.495 -39 2 C-39.46651207 4.12576782 -39.46651207 4.12576782 -39.625 6.5625 C-39.69976562 7.38878906 -39.77453125 8.21507813 -39.8515625 9.06640625 C-39.90054688 9.70449219 -39.94953125 10.34257813 -40 11 C-39.34 11 -38.68 11 -38 11 C-37.34 12.98 -36.68 14.96 -36 17 C-40.875 15.125 -40.875 15.125 -42 14 C-43.50369439 2.43550501 -43.50369439 2.43550501 -40.53125 -2.37890625 C-27.21683066 -14.61020814 -13.30295372 -8.86863581 0 0 Z " fill="#04114A" transform="translate(42,46)"/>
<path d="M0 0 C0.66 0.33 1.32 0.66 2 1 C-7.84073197 9.51411418 -7.84073197 9.51411418 -15 11 C-16.07894531 11.47566406 -17.15789062 11.95132813 -18.26953125 12.44140625 C-28.73507226 17.0246437 -40.72652923 17.53626858 -52 18 C-52 17.67 -52 17.34 -52 17 C-50.73285156 16.81824219 -49.46570313 16.63648437 -48.16015625 16.44921875 C-46.46087446 16.19573473 -44.76165919 15.94180454 -43.0625 15.6875 C-42.23169922 15.56955078 -41.40089844 15.45160156 -40.54492188 15.33007812 C-34.76758626 14.45336183 -29.48208802 13.00336928 -24 11 C-23.31542725 10.76144287 -22.63085449 10.52288574 -21.92553711 10.27709961 C-14.03476866 7.52052007 -7.0057093 4.62376814 0 0 Z " fill="#05114E" transform="translate(163,74)"/>
<path d="M0 0 C1.35116231 0.71555249 2.69368821 1.44763752 4.02734375 2.1953125 C8.96290829 4.88916933 13.48978739 6.96756775 18.96484375 8.3203125 C18.96484375 8.6503125 18.96484375 8.9803125 18.96484375 9.3203125 C12.7277243 9.21277596 8.41259397 7.71692138 2.96484375 4.7578125 C-2.39984367 1.89693268 -6.91951481 -0.22112991 -13.03515625 1.3203125 C-16.62800392 2.60366794 -16.62800392 2.60366794 -19.03515625 5.3203125 C-19.82800978 8.09001415 -19.93790057 10.40264203 -20.03515625 13.3203125 C-22.03515625 10.3203125 -22.03515625 10.3203125 -21.47265625 6.8828125 C-19.88305115 2.94335639 -18.57799134 1.56698841 -15.03515625 -0.6796875 C-9.68171473 -2.46416801 -5.05488488 -2.42190089 0 0 Z " fill="#061552" transform="translate(42.03515625,10.6796875)"/>
<path d="M0 0 C3.15444475 1.34805331 4.81222823 2.67707323 6.75 5.5 C7.17796875 6.1084375 7.6059375 6.716875 8.046875 7.34375 C9 9 9 9 9 11 C8.34 11 7.68 11 7 11 C5.375 9 5.375 9 4 7 C3.97421875 7.72445312 3.9484375 8.44890625 3.921875 9.1953125 C3.56369839 15.30059563 3.13186925 19.36729812 -1 24 C-1.66 24 -2.32 24 -3 24 C-3.66 25.32 -4.32 26.64 -5 28 C-5.99 27.67 -6.98 27.34 -8 27 C-7.236875 26.278125 -6.47375 25.55625 -5.6875 24.8125 C-1.171846 20.08681558 0.34679371 16.97337369 0.26367188 10.51757812 C0.2259668 9.36418945 0.2259668 9.36418945 0.1875 8.1875 C0.17396484 7.39923828 0.16042969 6.61097656 0.14648438 5.79882812 C0.11133456 3.86558831 0.05753361 1.93270318 0 0 Z " fill="#111D56" transform="translate(173,45)"/>
<path d="M0 0 C5.14341037 7.71511555 6.39143426 15.82968132 5 25 C2.95514667 27.99856293 0.62676269 30.50457544 -2 33 C-2 31.02 -2 29.04 -2 27 C-0.68 26.67 0.64 26.34 2 26 C1.85771699 23.16644901 1.71126584 20.33321213 1.5625 17.5 C1.52318359 16.70851563 1.48386719 15.91703125 1.44335938 15.1015625 C1.17294782 10.02614559 0.6872858 5.03624555 0 0 Z " fill="#0C2074" transform="translate(185,62)"/>
<path d="M0 0 C1.76150391 0.25136719 1.76150391 0.25136719 3.55859375 0.5078125 C14.77625245 1.97287084 24.8481175 1.85626725 36 0 C33.57917694 2.53086047 32.18676151 3.92896146 28.57324219 4.14526367 C25.29872075 4.16983051 22.02462098 4.18566239 18.75 4.1875 C17.05037109 4.20586914 17.05037109 4.20586914 15.31640625 4.22460938 C14.21683594 4.22654297 13.11726563 4.22847656 11.984375 4.23046875 C10.47955566 4.23663208 10.47955566 4.23663208 8.94433594 4.24291992 C5.70715318 3.97583892 3.03189623 3.13794767 0 2 C0 1.34 0 0.68 0 0 Z " fill="#0F2174" transform="translate(61,20)"/>
<path d="M0 0 C6.00744731 0.67904249 11.88798899 1.67650427 17.8125 2.875 C18.68745117 3.05063477 19.56240234 3.22626953 20.46386719 3.40722656 C26.71769221 4.68488974 32.88780392 6.14951862 39 8 C39 8.33 39 8.66 39 9 C31.72014944 9.50014241 25.15949067 7.87210365 18.11621094 6.11914062 C16.11153784 5.62165922 14.10316611 5.14198297 12.09375 4.6640625 C2.26092908 2.26092908 2.26092908 2.26092908 0 0 Z " fill="#0B1E6A" transform="translate(18,69)"/>
<path d="M0 0 C-1 2 -1 2 -2.73071289 2.77783203 C-5.17112319 3.57243366 -7.61288621 4.35915216 -10.0625 5.125 C-10.89716797 5.40214844 -11.73183594 5.67929688 -12.59179688 5.96484375 C-17.93503084 7.65568786 -22.39977028 8.29781568 -28 8 C-25.2232434 6.54851359 -22.46693581 5.38091317 -19.5 4.375 C-18.7471875 4.11460937 -17.994375 3.85421875 -17.21875 3.5859375 C-15 3 -15 3 -11 3 C-11 2.34 -11 1.68 -11 1 C-9.5437328 0.63743142 -8.08488815 0.28520207 -6.625 -0.0625 C-5.81289062 -0.25972656 -5.00078125 -0.45695313 -4.1640625 -0.66015625 C-2 -1 -2 -1 0 0 Z " fill="#09175B" transform="translate(154,154)"/>
<path d="M0 0 C0.33 0 0.66 0 1 0 C1.10094304 8.41192037 1.10102642 16.64399592 0 25 C-0.33 25 -0.66 25 -1 25 C-1 20.05 -1 15.1 -1 10 C-4.90838866 10 -6.11594107 11.50567876 -9 14 C-7.60701445 10.99868813 -5.96044932 8.48942591 -3.9375 5.875 C-1.76773805 3.06372737 -1.76773805 3.06372737 0 0 Z " fill="#1635A9" transform="translate(190,99)"/>
<path d="M0 0 C0.66 0 1.32 0 2 0 C2.13277344 0.69867188 2.26554687 1.39734375 2.40234375 2.1171875 C2.57894531 3.02726563 2.75554688 3.93734375 2.9375 4.875 C3.11152344 5.77992188 3.28554688 6.68484375 3.46484375 7.6171875 C3.89963701 9.99956317 3.89963701 9.99956317 5 12 C6.88764903 12.68472665 6.88764903 12.68472665 9.0625 13.125 C10.16271484 13.37636719 10.16271484 13.37636719 11.28515625 13.6328125 C11.85105469 13.75398437 12.41695312 13.87515625 13 14 C13 14.66 13 15.32 13 16 C13.66 16.33 14.32 16.66 15 17 C9.70122324 17.50464541 7.09283425 16.36521927 3 13 C-0.53295958 8.7604485 -0.26876031 5.28561944 0 0 Z " fill="#0A165F" transform="translate(50,147)"/>
<path d="M0 0 C6.25547004 -0.40600406 12.11878595 0.21762023 18.25 1.375 C18.92289063 1.50108643 19.59578125 1.62717285 20.2890625 1.75708008 C24.31237892 2.55369275 28.13897831 3.62106368 32 5 C32 5.33 32 5.66 32 6 C21.17126036 5.49279908 10.60054575 3.12424249 0 1 C0 0.67 0 0.34 0 0 Z " fill="#0B1E69" transform="translate(29,87)"/>
<path d="M0 0 C2.86697492 1.28519565 4.97607712 2.57129254 7 5 C7 5.66 7 6.32 7 7 C7.66 7 8.32 7 9 7 C10.4412666 14.97037794 10.4412666 14.97037794 8.6875 19.0625 C8.130625 19.701875 7.57375 20.34125 7 21 C6.34 21 5.68 21 5 21 C5.17917969 20.43152344 5.35835937 19.86304687 5.54296875 19.27734375 C6.72364976 14.99111392 7.18196756 12.60655852 5.875 8.25 C4.13089512 5.22688487 2.30129147 2.61871098 0 0 Z " fill="#061758" transform="translate(132,18)"/>
<path d="M0 0 C3.85025879 0.60355408 6.86101159 1.76772603 10.3125 3.5625 C11.19550781 4.01753906 12.07851562 4.47257813 12.98828125 4.94140625 C13.65214844 5.29074219 14.31601563 5.64007813 15 6 C11.78767875 7.07077375 9.36062193 7 6 7 C2.8125 5.1875 2.8125 5.1875 0 3 C0 2.01 0 1.02 0 0 Z " fill="#0C0E31" transform="translate(123,10)"/>
<path d="M0 0 C0.66 0.33 1.32 0.66 2 1 C1.51917969 1.39832031 1.03835937 1.79664063 0.54296875 2.20703125 C-1.37391825 4.43450247 -1.47741643 5.78834669 -1.6875 8.6875 C-1.78611328 9.89986328 -1.78611328 9.89986328 -1.88671875 11.13671875 C-1.92410156 11.75160156 -1.96148437 12.36648437 -2 13 C-1.34 13 -0.68 13 0 13 C0.66 14.98 1.32 16.96 2 19 C-2.875 17.125 -2.875 17.125 -4 16 C-4.12524459 14.21162378 -4.17573676 12.41771786 -4.1875 10.625 C-4.20167969 9.64789063 -4.21585937 8.67078125 -4.23046875 7.6640625 C-4 5 -4 5 -2 2 C-1.34 2 -0.68 2 0 2 C0 1.34 0 0.68 0 0 Z " fill="#112986" transform="translate(4,44)"/>
<path d="M0 0 C-1.2419607 3.43927579 -2.55740284 6.25207819 -5 9 C-5.66 9 -6.32 9 -7 9 C-7.66 10.65 -8.32 12.3 -9 14 C-10.28222189 10.96929372 -9.98589446 9.96403086 -8.75 6.8125 C-7 4 -7 4 -4 3 C-4 2.34 -4 1.68 -4 1 C-2 0 -2 0 0 0 Z " fill="#163AC3" transform="translate(175,153)"/>
<path d="M0 0 C-2.2034806 1.1560727 -4.41203156 2.29984721 -6.625 3.4375 C-7.24246094 3.76298828 -7.85992187 4.08847656 -8.49609375 4.42382812 C-12.33285611 6.38259628 -15.71743908 7.53221258 -20 8 C-17.31922593 4.72787871 -13.80013147 3.35415386 -10 1.75 C-9.3709375 1.46898437 -8.741875 1.18796875 -8.09375 0.8984375 C-3.369782 -1.12326067 -3.369782 -1.12326067 0 0 Z " fill="#041147" transform="translate(173,147)"/>
<path d="M0 0 C2.475 0.99 2.475 0.99 5 2 C5 2.66 5 3.32 5 4 C5.57234375 4.10183594 6.1446875 4.20367188 6.734375 4.30859375 C9.40275646 5.12291016 11.05965688 6.34673122 13.25 8.0625 C13.95640625 8.61035156 14.6628125 9.15820312 15.390625 9.72265625 C15.92171875 10.14417969 16.4528125 10.56570312 17 11 C16.67 11.66 16.34 12.32 16 13 C11.68773107 10.63247981 7.66284835 8.32986214 4 5 C4 4.34 4 3.68 4 3 C2.68 2.67 1.36 2.34 0 2 C0 1.34 0 0.68 0 0 Z " fill="#061551" transform="translate(139,17)"/>
<path d="M0 0 C0.33 0 0.66 0 1 0 C1.08117951 2.41734542 1.14056926 4.83194949 1.1875 7.25 C1.22520508 8.27287109 1.22520508 8.27287109 1.26367188 9.31640625 C1.31021876 12.51262602 1.18591611 14.66692213 -0.38671875 17.484375 C-2 19 -2 19 -4 19 C-4.66 20.32 -5.32 21.64 -6 23 C-6.99 22.67 -7.98 22.34 -9 22 C-8.236875 21.278125 -7.47375 20.55625 -6.6875 19.8125 C-2.35036424 15.273637 -0.65848993 11.98451673 -0.3125 5.6875 C-0.24675781 4.61886719 -0.18101562 3.55023438 -0.11328125 2.44921875 C-0.07589844 1.64097656 -0.03851563 0.83273438 0 0 Z " fill="#030D41" transform="translate(174,50)"/>
<path d="M0 0 C0.99 0.66 1.98 1.32 3 2 C0.54273755 4.88749022 -1.89265102 5.93213286 -5.4375 7.1875 C-6.38496094 7.53167969 -7.33242187 7.87585938 -8.30859375 8.23046875 C-11 9 -11 9 -15 9 C-15 8.34 -15 7.68 -15 7 C-10.32790951 5.56976822 -5.86896303 4.59619955 -1 4 C-0.67 2.68 -0.34 1.36 0 0 Z " fill="#1735AE" transform="translate(148,177)"/>
<path d="M0 0 C-1 2 -1 2 -3.00390625 2.8515625 C-8.55529321 4.52969169 -13.20386714 5.32200738 -19 5 C-15.58386395 3.14047766 -12.08242178 1.97159236 -8.375 0.8125 C-7.22773438 0.44769531 -6.08046875 0.08289063 -4.8984375 -0.29296875 C-2 -1 -2 -1 0 0 Z " fill="#0B1B67" transform="translate(159,112)"/>
<path d="M0 0 C0.66 0.66 1.32 1.32 2 2 C1.50628906 2.40992187 1.01257813 2.81984375 0.50390625 3.2421875 C-0.13675781 3.78101562 -0.77742187 4.31984375 -1.4375 4.875 C-2.07558594 5.40867187 -2.71367187 5.94234375 -3.37109375 6.4921875 C-5.10805004 7.9222757 -5.10805004 7.9222757 -6 10 C-7.32 10 -8.64 10 -10 10 C-8.5741914 6.54804233 -6.90253666 4.8985744 -3.875 2.75 C-3.15054688 2.22921875 -2.42609375 1.7084375 -1.6796875 1.171875 C-1.12539062 0.78515625 -0.57109375 0.3984375 0 0 Z " fill="#091A6A" transform="translate(179,111)"/>
<path d="M0 0 C0 0.33 0 0.66 0 1 C-5.75 1.125 -5.75 1.125 -8 0 C-13.46159052 -0.46969678 -17.83425464 0.11009316 -23 2 C-23.66 1.67 -24.32 1.34 -25 1 C-17.56051772 -3.95965485 -8.11079715 -2.94938078 0 0 Z " fill="#1838B3" transform="translate(33,88)"/>
<path d="M0 0 C4.07754756 -0.27768245 6.53015064 0.4731378 10.125 2.375 C10.97320312 2.81585938 11.82140625 3.25671875 12.6953125 3.7109375 C15 5 15 5 18 7 C13.00216563 7.36020428 10.01981128 6.34389935 5.625 4 C4.56539062 3.443125 3.50578125 2.88625 2.4140625 2.3125 C1.61742188 1.879375 0.82078125 1.44625 0 1 C0 0.67 0 0.34 0 0 Z " fill="#071457" transform="translate(24,39)"/>
<path d="M0 0 C6.08233706 0.67581523 12.01314152 1.73638028 18 3 C18 3.66 18 4.32 18 5 C14.02871764 4.49302778 10.10983719 3.86854664 6.1875 3.0625 C5.43855469 2.90910156 4.68960937 2.75570312 3.91796875 2.59765625 C2 2 2 2 0 0 Z " fill="#071558" transform="translate(18,69)"/>
<path d="M0 0 C-5.5522888 2.8352113 -9.80112515 3.37952295 -16 3 C-13.2403139 1.16020927 -11.70258118 0.51676779 -8.5625 -0.1875 C-7.41974609 -0.45626953 -7.41974609 -0.45626953 -6.25390625 -0.73046875 C-3.87041504 -1.0154963 -2.26895796 -0.72875415 0 0 Z " fill="#081A61" transform="translate(141,186)"/>
<path d="M0 0 C1.66842534 0.32441604 3.33480481 0.65939189 5 1 C6.11375 1.185625 6.11375 1.185625 7.25 1.375 C8.11625 1.684375 8.11625 1.684375 9 2 C9.33 2.99 9.66 3.98 10 5 C9.34 5 8.68 5 8 5 C7.67 5.66 7.34 6.32 7 7 C5.83040013 6.02433888 4.66438823 5.044375 3.5 4.0625 C2.8503125 3.51722656 2.200625 2.97195312 1.53125 2.41015625 C1.0259375 1.94480469 0.520625 1.47945312 0 1 C0 0.67 0 0.34 0 0 Z " fill="#172B88" transform="translate(130,15)"/>
<path d="M0 0 C0.33 0 0.66 0 1 0 C1.37992882 3.34218632 1.23536171 4.66954796 -0.75 7.45703125 C-1.86375 8.62298828 -1.86375 8.62298828 -3 9.8125 C-3.7425 10.60269531 -4.485 11.39289063 -5.25 12.20703125 C-5.8275 12.79871094 -6.405 13.39039062 -7 14 C-7 10.39351969 -6.10012314 9.34770529 -4.0625 6.4375 C-1.8716815 3.31319772 -1.8716815 3.31319772 0 0 Z " fill="#020D3F" transform="translate(188,98)"/>
<path d="M0 0 C0.79921875 0.01804688 1.5984375 0.03609375 2.421875 0.0546875 C3.02515625 0.07789063 3.6284375 0.10109375 4.25 0.125 C4.25 0.455 4.25 0.785 4.25 1.125 C2.4246875 1.24875 2.4246875 1.24875 0.5625 1.375 C-3.60172624 1.85972475 -5.53477918 3.44564932 -8.75 6.125 C-11.0625 5.875 -11.0625 5.875 -12.75 5.125 C-8.5200301 1.80145222 -5.48222682 -0.16124197 0 0 Z " fill="#1733A3" transform="translate(18.75,37.875)"/>
<path d="M0 0 C0.66 0.33 1.32 0.66 2 1 C0.42982807 2.36940568 -1.15665391 3.72012895 -2.75 5.0625 C-3.63171875 5.81660156 -4.5134375 6.57070312 -5.421875 7.34765625 C-8 9 -8 9 -10.328125 8.74609375 C-10.87984375 8.49988281 -11.4315625 8.25367187 -12 8 C-11.360625 7.896875 -10.72125 7.79375 -10.0625 7.6875 C-9.381875 7.460625 -8.70125 7.23375 -8 7 C-7.67 6.01 -7.34 5.02 -7 4 C-4.78406817 2.28945613 -2.53809348 1.24678276 0 0 Z " fill="#08175A" transform="translate(163,74)"/>
<path d="M0 0 C2.31 0.33 4.62 0.66 7 1 C7 1.66 7 2.32 7 3 C9.475 3.99 9.475 3.99 12 5 C9.44345185 5.95582656 8.39658231 6.17802782 5.859375 5.0390625 C5.16328125 4.57242188 4.4671875 4.10578125 3.75 3.625 C3.04359375 3.16351563 2.3371875 2.70203125 1.609375 2.2265625 C1.07828125 1.82179688 0.5471875 1.41703125 0 1 C0 0.67 0 0.34 0 0 Z " fill="#091760" transform="translate(6,63)"/>
<path d="M0 0 C-0.33 0.66 -0.66 1.32 -1 2 C-4.47325181 3.1577506 -7.36067448 3.06866652 -11 3 C-11 2.34 -11 1.68 -11 1 C-9.5437328 0.63743142 -8.08488815 0.28520207 -6.625 -0.0625 C-5.40683594 -0.35833984 -5.40683594 -0.35833984 -4.1640625 -0.66015625 C-2 -1 -2 -1 0 0 Z " fill="#10267F" transform="translate(154,154)"/>
<path d="M0 0 C-5.5626148 2.66038099 -10.93267948 3.96232949 -17 5 C-14.65117776 2.65117776 -12.72876333 1.96496976 -9.625 0.8125 C-8.66851562 0.44769531 -7.71203125 0.08289062 -6.7265625 -0.29296875 C-3.94714704 -1.01370542 -2.64891897 -0.98549829 0 0 Z " fill="#030C42" transform="translate(129,46)"/>
<path d="M0 0 C5.41538462 -0.36923077 5.41538462 -0.36923077 8.375 1.5 C8.91125 1.995 9.4475 2.49 10 3 C8.68 3 7.36 3 6 3 C5.67 3.66 5.34 4.32 5 5 C2.5 3.625 2.5 3.625 0 2 C0 1.34 0 0.68 0 0 Z " fill="#0B1435" transform="translate(88,0)"/>
<path d="M0 0 C6.52307692 0.61538462 6.52307692 0.61538462 8.9375 2.5625 C9.288125 3.036875 9.63875 3.51125 10 4 C7.69 3.67 5.38 3.34 3 3 C3.33 3.66 3.66 4.32 4 5 C3.01 4.67 2.02 4.34 1 4 C0.3125 1.9375 0.3125 1.9375 0 0 Z " fill="#0C1445" transform="translate(128,13)"/>
<path d="M0 0 C2.91517292 1.07401108 4.77810176 1.77810176 7 4 C6.34 4 5.68 4 5 4 C5 6.31 5 8.62 5 11 C4.67 11 4.34 11 4 11 C3.71125 9.9275 3.4225 8.855 3.125 7.75 C2.27179891 4.90599636 1.4363497 2.56491017 0 0 Z " fill="#1734A4" transform="translate(98,5)"/>
<path d="M0 0 C3.01217112 0.64449607 5.51655836 1.65022182 8.25 3.0625 C8.95640625 3.42472656 9.6628125 3.78695313 10.390625 4.16015625 C10.92171875 4.43730469 11.4528125 4.71445312 12 5 C12 5.33 12 5.66 12 6 C7.5428126 5.73781251 5.48477302 5.42288711 2.0625 2.4375 C1.381875 1.633125 0.70125 0.82875 0 0 Z " fill="#05155A" transform="translate(22,24)"/>
<path d="M0 0 C-1.24976756 3.65316671 -1.67098753 4.78065836 -5 7 C-5 6.34 -5 5.68 -5 5 C-5.66 4.67 -6.32 4.34 -7 4 C-6.01 3.67 -5.02 3.34 -4 3 C-4 2.34 -4 1.68 -4 1 C-2 0 -2 0 0 0 Z " fill="#1837AB" transform="translate(175,153)"/>
<path d="M0 0 C0.66 0.33 1.32 0.66 2 1 C-0.97 3.64 -3.94 6.28 -7 9 C-7 6 -7 6 -4.625 3.375 C-2 1 -2 1 0 0 Z " fill="#040E42" transform="translate(11,85)"/>
<path d="M0 0 C1.32 0.99 2.64 1.98 4 3 C4 3.66 4 4.32 4 5 C3.01 5.495 3.01 5.495 2 6 C1.34444881 8.52733235 1.34444881 8.52733235 1 11 C0.67 11 0.34 11 0 11 C0 7.37 0 3.74 0 0 Z " fill="#1936A7" transform="translate(176,51)"/>
<path d="M0 0 C1.98 0.66 3.96 1.32 6 2 C5.67 3.32 5.34 4.64 5 6 C3.0625 5.25 3.0625 5.25 1 4 C0.25 1.875 0.25 1.875 0 0 Z " fill="#0F2378" transform="translate(153,29)"/>
<path d="M0 0 C2.31 0.33 4.62 0.66 7 1 C7 1.66 7 2.32 7 3 C7.66 3.33 8.32 3.66 9 4 C3.48 4.368 3.48 4.368 1.125 2.5625 C0 1 0 1 0 0 Z " fill="#0E206F" transform="translate(56,160)"/>
<path d="M0 0 C0 0.99 0 1.98 0 3 C-2.97 3.66 -5.94 4.32 -9 5 C-4 0 -4 0 0 0 Z " fill="#08165B" transform="translate(162,150)"/>
<path d="M0 0 C0 0.99 0 1.98 0 3 C-2.30368736 4.06652192 -4.64018187 5.06421005 -7 6 C-7.66 5.67 -8.32 5.34 -9 5 C-7.87926138 4.16094435 -6.75325453 3.32892169 -5.625 2.5 C-4.99851563 2.0359375 -4.37203125 1.571875 -3.7265625 1.09375 C-2 0 -2 0 0 0 Z " fill="#0C1F6D" transform="translate(177,141)"/>
<path d="M0 0 C-1.26418246 0.69965443 -2.53665402 1.38434763 -3.8125 2.0625 C-4.52019531 2.44535156 -5.22789062 2.82820313 -5.95703125 3.22265625 C-8 4 -8 4 -11 3 C-3.53658537 -1.76829268 -3.53658537 -1.76829268 0 0 Z " fill="#030F45" transform="translate(169,109)"/>
<path d="M0 0 C2.475 0.99 2.475 0.99 5 2 C5 2.66 5 3.32 5 4 C5.639375 4.12375 6.27875 4.2475 6.9375 4.375 C7.618125 4.58125 8.29875 4.7875 9 5 C9.33 5.66 9.66 6.32 10 7 C8.35 6.67 6.7 6.34 5 6 C4.67 5.01 4.34 4.02 4 3 C1.98491642 2.26676204 1.98491642 2.26676204 0 2 C0 1.34 0 0.68 0 0 Z " fill="#040F3D" transform="translate(139,17)"/>
<path d="M0 0 C0.598125 0.20625 1.19625 0.4125 1.8125 0.625 C-0.58259338 3.52432357 -2.49995243 4.12668276 -6.1875 4.625 C-5.03076352 1.15479057 -3.91311293 -0.67081936 0 0 Z " fill="#081C61" transform="translate(167.1875,156.375)"/>
<path d="M0 0 C0.66 0 1.32 0 2 0 C2 1.98 2 3.96 2 6 C1.34 6 0.68 6 0 6 C-0.33 6.66 -0.66 7.32 -1 8 C-1.04241723 5.66705225 -1.04092937 3.33297433 -1 1 C-0.67 0.67 -0.34 0.34 0 0 Z " fill="#0D1950" transform="translate(190,93)"/>
<path d="M0 0 C3.08089673 2.77280706 4.68775452 5.06326356 6 9 C5.34 9 4.68 9 4 9 C0 2.25 0 2.25 0 0 Z " fill="#040D42" transform="translate(176,47)"/>
<path d="M0 0 C0.66 0.33 1.32 0.66 2 1 C1.01 2.485 1.01 2.485 0 4 C-0.66 4 -1.32 4 -2 4 C-2 4.66 -2 5.32 -2 6 C-3.32 5.67 -4.64 5.34 -6 5 C-4.02 3.35 -2.04 1.7 0 0 Z " fill="#041151" transform="translate(135,39)"/>
<path d="M0 0 C0.33 0.99 0.66 1.98 1 3 C-0.25 4.5625 -0.25 4.5625 -2 6 C-4.1875 5.6875 -4.1875 5.6875 -6 5 C-4.02 3.35 -2.04 1.7 0 0 Z " fill="#1734AD" transform="translate(139,38)"/>
<path d="M0 0 C-2.76223278 2.76223278 -5.20706617 2.57856291 -9 3 C-9 2.34 -9 1.68 -9 1 C-6.04335481 -0.4783226 -3.25770263 -0.06032783 0 0 Z " fill="#05104C" transform="translate(129,189)"/>
</svg>
